<svg height="457pt" viewBox="0 -90 457.42 457" width="457pt" xmlns="http://www.w3.org/2000/svg"><path d="m446.710938 80.105469h-150c-4.417969 0-8-3.582031-8-8s3.582031-8 8-8h150c4.417968 0 8 3.582031 8 8s-3.582032 8-8 8zm0 0" fill="#00acea"/><g fill="#fedb41"><path d="m334.730469 126.632812c-4.417969 0-8-3.578124-8-8v-96.847656c0-4.417968 3.582031-8 8-8s8 3.582032 8 8v96.847656c0 4.421876-3.582031 8-8 8zm0 0"/><path d="m372.960938 113.894531c-4.417969 0-8-3.582031-8-8v-71.359375c0-4.417968 3.582031-8 8-8 4.417968 0 8 3.582032 8 8v71.359375c0 4.417969-3.582032 8-8 8zm0 0"/><path d="m411.191406 101.144531c-4.417968 0-8-3.582031-8-8v-45.871093c0-4.417969 3.582032-8 8-8 4.417969 0 8 3.582031 8 8v45.871093c0 4.417969-3.582031 8-8 8zm0 0"/><path d="m449.421875 88.40625c-4.421875 0-8-3.582031-8-8v-20.390625c0-4.417969 3.578125-8 8-8 4.417969 0 8 3.582031 8 8v20.390625c0 4.417969-3.582031 8-8 8zm0 0"/></g><path d="m293.898438 49.445312v41.550782c.003906 15.878906-11.621094 29.367187-27.328126 31.707031l-99.058593 14.78125c-3.339844.492187-6.042969 1.089844-9.390625 1.449219l-17 78.75c-7.882813 34.882812-38.839844 60.320312-74.582032 60.320312-34.574218-.003906-62.628906-27.984375-62.71875-62.558594.003907-4.519531.488282-9.023437 1.449219-13.441406l14.378907-66.210937c1.480468-6.820313-2.855469-13.546875-9.679688-15.019531-5.8125-1.246094-9.96484375-6.382813-9.96875-12.328126v-86.660156l78.28125-16.171875c29.167969-6.15625 59.203125-7.0625 88.6875-2.667969l99.582031 14.78125c15.714844 2.335938 27.351563 15.828126 27.347657 31.71875zm-171.019532 25.738282c0-15.394532-12.484375-27.871094-27.878906-27.867188-15.394531 0-27.871094 12.484375-27.871094 27.878906.003906 15.394532 12.484375 27.871094 27.882813 27.871094 15.394531-.003906 27.871093-12.488281 27.867187-27.882812zm0 0" fill="#00efd1"/><path d="m95.011719 47.316406c15.394531 0 27.871093 12.484375 27.867187 27.878906 0 15.394532-12.484375 27.871094-27.878906 27.871094-15.394531-.003906-27.871094-12.488281-27.871094-27.882812.003906-15.394532 12.484375-27.871094 27.882813-27.867188zm0 0" fill="#fedb41"/><path d="m110.710938 175.105469h-54c-4.417969 0-8-3.582031-8-8s3.582031-8 8-8h54c4.417968 0 8 3.582031 8 8s-3.582032 8-8 8zm0 0" fill="#fedb41"/><path d="m98.710938 200.105469h-46c-4.417969 0-8-3.582031-8-8s3.582031-8 8-8h46c4.417968 0 8 3.582031 8 8s-3.582032 8-8 8zm0 0" fill="#fedb41"/><path d="m85.710938 226.105469h-38c-4.417969 0-8-3.582031-8-8s3.582031-8 8-8h38c4.417968 0 8 3.582031 8 8s-3.582032 8-8 8zm0 0" fill="#fedb41"/></svg>