<svg height="511pt" viewBox="1 -72 511.99999 511" width="511pt" xmlns="http://www.w3.org/2000/svg"><path d="m36.070312 115.355469c0-11.167969 2.496094-21.777344 6.929688-31.324219h-11.675781c-17.230469 0-31.324219 14.097656-31.324219 31.324219 0 17.226562 14.09375 31.324219 31.324219 31.324219h11.675781c-4.433594-9.546876-6.929688-20.15625-6.929688-31.324219zm0 0" fill="#60b8ff"/><path d="m21.292969 115.355469c0-13.578125 8.757812-25.203125 20.898437-29.523438.265625-.605469.53125-1.203125.808594-1.800781h-11.675781c-17.230469 0-31.324219 14.097656-31.324219 31.324219 0 17.226562 14.09375 31.324219 31.324219 31.324219h11.675781c-.277344-.597657-.542969-1.199219-.808594-1.800782-12.140625-4.320312-20.898437-15.945312-20.898437-29.523437zm0 0" fill="#22a7ff"/><path d="m221.90625 188.148438h-51.835938l-10.367187 45.644531h38.105469c18.09375 0 31.246094-17.1875 26.515625-34.652344zm0 0" fill="#4f66d1"/><path d="m170.070312 188.148438-10.367187 45.644531h21.292969l10.363281-45.644531zm0 0" fill="#314dca"/><path d="m142.832031 337.371094c-2.234375-6.253906-2.605469-13.027344-1.070312-19.488282l30.367187-129.734374h-63.269531c-11.621094 0-22.648437-2.6875-32.488281-7.46875l-21.207032 168.488281c-1.203124 9.441406 6.152344 17.792969 15.671876 17.792969h60.148437c10.921875 0 18.550781-10.820313 14.875-21.109376zm0 0" fill="#6c7fd9"/><path d="m76.457031 349.167969 20.390625-162c-7.214844-1.175781-14.09375-3.390625-20.476562-6.488281l-21.207032 168.488281c-1.203124 9.441406 6.152344 17.792969 15.671876 17.792969h21.289062c-9.515625 0-16.871094-8.351563-15.667969-17.792969zm0 0" fill="#4f66d1"/><path d="m479.988281 123.082031h-151.789062c-4.269531 0-7.730469-3.457031-7.730469-7.726562s3.460938-7.726563 7.730469-7.726563h151.789062c4.265625 0 7.726563 3.457032 7.726563 7.726563s-3.460938 7.726562-7.726563 7.726562zm0 0" fill="#54469d"/><g fill="#6c7fd9"><path d="m366.964844 230.210938c-4.265625 0-7.726563-3.460938-7.726563-7.726563v-214.257813c0-4.265624 3.460938-7.726562 7.726563-7.726562 4.269531 0 7.726562 3.460938 7.726562 7.726562v214.257813c0 4.265625-3.457031 7.726563-7.726562 7.726563zm0 0"/><path d="m402.933594 204.21875c-4.269532 0-7.726563-3.460938-7.726563-7.726562v-162.273438c0-4.269531 3.457031-7.726562 7.726563-7.726562 4.265625 0 7.726562 3.457031 7.726562 7.726562v162.273438c0 4.265624-3.460937 7.726562-7.726562 7.726562zm0 0"/><path d="m438.898438 176.644531c-4.265626 0-7.726563-3.457031-7.726563-7.726562v-107.125c0-4.269531 3.460937-7.726563 7.726563-7.726563 4.269531 0 7.726562 3.457032 7.726562 7.726563v107.125c0 4.269531-3.457031 7.726562-7.726562 7.726562zm0 0"/></g><path d="m305.4375 40.503906h-196.578125c-41.167969 0-74.851563 33.683594-74.851563 74.851563s33.683594 74.851562 74.851563 74.851562h196.574219v-149.703125zm0 0" fill="#ffd500"/><path d="m35.671875 99.730469c-1.082031 5.042969-1.664063 10.269531-1.664063 15.625 0 41.167969 33.683594 74.851562 74.851563 74.851562h196.574219v-31.25h-196.574219c-35.8125 0-65.949219-25.496093-73.1875-59.226562zm0 0" fill="#fbc700"/><path d="m305.4375 40.503906h-162.203125c-17.914063 0-32.574219 14.65625-32.574219 32.574219s14.660156 32.574219 32.574219 32.574219h162.203125zm0 0" fill="#fbc700"/><path d="m114.683594 57.453125c-2.5625 4.644531-4.023438 9.972656-4.023438 15.625 0 17.917969 14.660156 32.574219 32.574219 32.574219h162.203125v-31.25h-162.203125c-12.261719 0-22.996094-6.871094-28.550781-16.949219zm0 0" fill="#e9b900"/><path d="m512 115.355469c0 11.6875-9.472656 21.160156-21.160156 21.160156s-21.160156-9.472656-21.160156-21.160156 9.472656-21.160157 21.160156-21.160157 21.160156 9.472657 21.160156 21.160157zm0 0" fill="#60b8ff"/><path d="m490.972656 115.355469c0-7.800781 4.230469-14.597657 10.511719-18.265625-3.128906-1.828125-6.757813-2.894532-10.644531-2.894532-11.6875 0-21.160156 9.472657-21.160156 21.160157s9.472656 21.160156 21.160156 21.160156c3.886718 0 7.515625-1.066406 10.644531-2.894531-6.28125-3.667969-10.511719-10.464844-10.511719-18.265625zm0 0" fill="#22a7ff"/><path d="m266.695312 167.101562c-4.265624 0-7.726562-3.460937-7.726562-7.726562v-25.480469c0-4.265625 3.457031-7.726562 7.726562-7.726562 4.269532 0 7.726563 3.460937 7.726563 7.726562v25.480469c0 4.265625-3.460937 7.726562-7.726563 7.726562zm0 0" fill="#e9b900"/><path d="m238.972656 165.792969c-4.265625 0-7.726562-3.457031-7.726562-7.726563v-25.476562c0-4.269532 3.457031-7.730469 7.726562-7.730469 4.269532 0 7.726563 3.460937 7.726563 7.730469v25.476562c0 4.269532-3.457031 7.726563-7.726563 7.726563zm0 0" fill="#e9b900"/><path d="m211.25 164.488281c-4.269531 0-7.726562-3.460937-7.726562-7.726562v-25.480469c0-4.265625 3.457031-7.726562 7.726562-7.726562 4.265625 0 7.726562 3.460937 7.726562 7.726562v25.480469c0 4.265625-3.460937 7.726562-7.726562 7.726562zm0 0" fill="#e9b900"/><path d="m324.359375 28.039062h-9.15625c-6.503906 0-11.828125 5.320313-11.828125 11.828126v150.976562c0 6.503906 5.324219 11.828125 11.828125 11.828125h9.15625c6.503906 0 11.828125-5.324219 11.828125-11.828125v-150.976562c0-6.507813-5.324219-11.828126-11.828125-11.828126zm0 0" fill="#ffe55a"/><path d="m324.667969 190.84375v-150.976562c0-4.289063 2.320312-8.050782 5.757812-10.128907-1.777343-1.070312-3.851562-1.699219-6.066406-1.699219h-9.15625c-6.503906 0-11.828125 5.320313-11.828125 11.828126v150.976562c0 6.503906 5.324219 11.828125 11.828125 11.828125h9.15625c2.214844 0 4.289063-.628906 6.066406-1.703125-3.4375-2.074219-5.757812-5.835938-5.757812-10.125zm0 0" fill="#fbc700"/></svg>